<?xml version="1.0" encoding="UTF-8" standalone="no"?>
<!DOCTYPE svg PUBLIC "-//W3C//DTD SVG 1.1//EN"
 "http://www.w3.org/Graphics/SVG/1.1/DTD/svg11.dtd">
<!-- Generated by graphviz version 2.40.1 (0)
 -->
<!-- Title: callgraph Pages: 1 -->
<svg width="697pt" height="206pt"
 viewBox="0.00 0.00 697.45 206.00" xmlns="http://www.w3.org/2000/svg" xmlns:xlink="http://www.w3.org/1999/xlink">
<g id="graph0" class="graph" transform="scale(1 1) rotate(0) translate(4 202)">
<title>callgraph</title>
<polygon fill="#ffffff" stroke="transparent" points="-4,4 -4,-202 693.4452,-202 693.4452,4 -4,4"/>
<!-- ext4_release_io_end -->
<g id="node1" class="node">
<title>ext4_release_io_end</title>
<ellipse fill="#0000ff" stroke="#0000ff" cx="584.8045" cy="-126" rx="104.7816" ry="18"/>
<text text-anchor="middle" x="584.8045" y="-122.3" font-family="Times,serif" font-size="14.00" fill="#000000">ext4_release_io_end</text>
</g>
<!-- ext4_end_io_rsv_work -->
<g id="node2" class="node">
<title>ext4_end_io_rsv_work</title>
<ellipse fill="none" stroke="#000000" cx="327.8241" cy="-180" rx="114.2798" ry="18"/>
<text text-anchor="middle" x="327.8241" y="-176.3" font-family="Times,serif" font-size="14.00" fill="#000000">ext4_end_io_rsv_work</text>
</g>
<!-- ext4_end_io_rsv_work&#45;&gt;ext4_release_io_end -->
<g id="edge1" class="edge">
<title>ext4_end_io_rsv_work&#45;&gt;ext4_release_io_end</title>
<path fill="none" stroke="#000000" d="M396.6901,-165.529C431.2079,-158.2757 473.1021,-149.4723 508.5851,-142.0162"/>
<polygon fill="#000000" stroke="#000000" points="509.3451,-145.433 518.4116,-139.9513 507.9056,-138.5826 509.3451,-145.433"/>
</g>
<!-- ext4_end_io_dio -->
<g id="node3" class="node">
<title>ext4_end_io_dio</title>
<ellipse fill="none" stroke="#000000" cx="87.7422" cy="-180" rx="85.2851" ry="18"/>
<text text-anchor="middle" x="87.7422" y="-176.3" font-family="Times,serif" font-size="14.00" fill="#000000">ext4_end_io_dio</text>
</g>
<!-- ext4_put_io_end -->
<g id="node4" class="node">
<title>ext4_put_io_end</title>
<ellipse fill="none" stroke="#000000" cx="327.8241" cy="-126" rx="87.1846" ry="18"/>
<text text-anchor="middle" x="327.8241" y="-122.3" font-family="Times,serif" font-size="14.00" fill="#000000">ext4_put_io_end</text>
</g>
<!-- ext4_end_io_dio&#45;&gt;ext4_put_io_end -->
<g id="edge2" class="edge">
<title>ext4_end_io_dio&#45;&gt;ext4_put_io_end</title>
<path fill="none" stroke="#000000" d="M146.1659,-166.8592C180.1672,-159.2115 223.2173,-149.5285 258.8738,-141.5085"/>
<polygon fill="#000000" stroke="#000000" points="259.7329,-144.9028 268.7211,-139.2937 258.1967,-138.0734 259.7329,-144.9028"/>
</g>
<!-- ext4_put_io_end&#45;&gt;ext4_release_io_end -->
<g id="edge3" class="edge">
<title>ext4_put_io_end&#45;&gt;ext4_release_io_end</title>
<path fill="none" stroke="#000000" d="M415.1845,-126C432.7407,-126 451.4421,-126 469.7741,-126"/>
<polygon fill="#000000" stroke="#000000" points="469.9108,-129.5001 479.9108,-126 469.9108,-122.5001 469.9108,-129.5001"/>
</g>
<!-- ext4_writepages -->
<g id="node5" class="node">
<title>ext4_writepages</title>
<ellipse fill="none" stroke="#000000" cx="87.7422" cy="-126" rx="87.9851" ry="18"/>
<text text-anchor="middle" x="87.7422" y="-122.3" font-family="Times,serif" font-size="14.00" fill="#000000">ext4_writepages</text>
</g>
<!-- ext4_writepages&#45;&gt;ext4_put_io_end -->
<g id="edge4" class="edge">
<title>ext4_writepages&#45;&gt;ext4_put_io_end</title>
<path fill="none" stroke="#000000" d="M175.7766,-126C193.5348,-126 212.3011,-126 230.3602,-126"/>
<polygon fill="#000000" stroke="#000000" points="230.6026,-129.5001 240.6026,-126 230.6026,-122.5001 230.6026,-129.5001"/>
</g>
<!-- ext4_put_io_end_defer -->
<g id="node7" class="node">
<title>ext4_put_io_end_defer</title>
<ellipse fill="none" stroke="#000000" cx="327.8241" cy="-72" rx="116.1796" ry="18"/>
<text text-anchor="middle" x="327.8241" y="-68.3" font-family="Times,serif" font-size="14.00" fill="#000000">ext4_put_io_end_defer</text>
</g>
<!-- ext4_writepages&#45;&gt;ext4_put_io_end_defer -->
<g id="edge8" class="edge">
<title>ext4_writepages&#45;&gt;ext4_put_io_end_defer</title>
<path fill="none" stroke="#000000" d="M147.0883,-112.6517C178.6839,-105.5451 217.8922,-96.7262 251.7068,-89.1206"/>
<polygon fill="#000000" stroke="#000000" points="252.5621,-92.5157 261.5503,-86.9065 251.026,-85.6863 252.5621,-92.5157"/>
</g>
<!-- ext4_writepage -->
<g id="node6" class="node">
<title>ext4_writepage</title>
<ellipse fill="none" stroke="#000000" cx="87.7422" cy="-72" rx="83.3857" ry="18"/>
<text text-anchor="middle" x="87.7422" y="-68.3" font-family="Times,serif" font-size="14.00" fill="#000000">ext4_writepage</text>
</g>
<!-- ext4_writepage&#45;&gt;ext4_put_io_end_defer -->
<g id="edge5" class="edge">
<title>ext4_writepage&#45;&gt;ext4_put_io_end_defer</title>
<path fill="none" stroke="#000000" d="M171.0374,-72C180.7886,-72 190.8977,-72 201.0713,-72"/>
<polygon fill="#000000" stroke="#000000" points="201.2556,-75.5001 211.2556,-72 201.2556,-68.5001 201.2556,-75.5001"/>
</g>
<!-- ext4_put_io_end_defer&#45;&gt;ext4_release_io_end -->
<g id="edge6" class="edge">
<title>ext4_put_io_end_defer&#45;&gt;ext4_release_io_end</title>
<path fill="none" stroke="#000000" d="M397.0282,-86.542C431.26,-93.7353 472.6822,-102.4394 507.9032,-109.8405"/>
<polygon fill="#000000" stroke="#000000" points="507.6332,-113.3601 518.1392,-111.9914 509.0727,-106.5097 507.6332,-113.3601"/>
</g>
<!-- ext4_end_bio -->
<g id="node8" class="node">
<title>ext4_end_bio</title>
<ellipse fill="none" stroke="#000000" cx="87.7422" cy="-18" rx="72.2875" ry="18"/>
<text text-anchor="middle" x="87.7422" y="-14.3" font-family="Times,serif" font-size="14.00" fill="#000000">ext4_end_bio</text>
</g>
<!-- ext4_end_bio&#45;&gt;ext4_put_io_end_defer -->
<g id="edge7" class="edge">
<title>ext4_end_bio&#45;&gt;ext4_put_io_end_defer</title>
<path fill="none" stroke="#000000" d="M141.6213,-30.1187C174.0982,-37.4235 215.9713,-46.8417 251.7815,-54.8962"/>
<polygon fill="#000000" stroke="#000000" points="251.1838,-58.3492 261.7082,-57.129 252.72,-51.5198 251.1838,-58.3492"/>
</g>
</g>
</svg>
